<mxfile host="app.diagrams.net" agent="Mozilla/5.0 (Windows NT 10.0; Win64; x64; rv:130.0) Gecko/20100101 Firefox/130.0" version="24.7.14">
  <diagram name="Page-1" id="uEfg6Ik2LNgcCV9Y4D9y">
    <mxGraphModel dx="954" dy="567" grid="1" gridSize="10" guides="1" tooltips="1" connect="1" arrows="1" fold="1" page="1" pageScale="1" pageWidth="850" pageHeight="1100" math="0" shadow="0">
      <root>
        <mxCell id="0" />
        <mxCell id="1" parent="0" />
        <mxCell id="1OjgaYy7xjw8Jyk47IAL-1" value="&lt;font style=&quot;font-size: 24px;&quot;&gt;MCU&lt;/font&gt;" style="rounded=1;whiteSpace=wrap;html=1;" vertex="1" parent="1">
          <mxGeometry y="300" width="120" height="60" as="geometry" />
        </mxCell>
        <mxCell id="1OjgaYy7xjw8Jyk47IAL-10" style="edgeStyle=orthogonalEdgeStyle;rounded=0;orthogonalLoop=1;jettySize=auto;html=1;exitX=0;exitY=0.5;exitDx=0;exitDy=0;entryX=1;entryY=0.25;entryDx=0;entryDy=0;" edge="1" parent="1" source="1OjgaYy7xjw8Jyk47IAL-2" target="1OjgaYy7xjw8Jyk47IAL-1">
          <mxGeometry relative="1" as="geometry">
            <Array as="points">
              <mxPoint x="140" y="250" />
              <mxPoint x="140" y="315" />
            </Array>
          </mxGeometry>
        </mxCell>
        <mxCell id="1OjgaYy7xjw8Jyk47IAL-12" style="edgeStyle=orthogonalEdgeStyle;rounded=0;orthogonalLoop=1;jettySize=auto;html=1;exitX=1;exitY=0.5;exitDx=0;exitDy=0;entryX=0;entryY=0.25;entryDx=0;entryDy=0;" edge="1" parent="1" source="1OjgaYy7xjw8Jyk47IAL-2" target="1OjgaYy7xjw8Jyk47IAL-11">
          <mxGeometry relative="1" as="geometry" />
        </mxCell>
        <mxCell id="1OjgaYy7xjw8Jyk47IAL-2" value="&lt;font style=&quot;font-size: 24px;&quot;&gt;Transmitter&lt;/font&gt;" style="rounded=1;whiteSpace=wrap;html=1;" vertex="1" parent="1">
          <mxGeometry x="320" y="220" width="140" height="60" as="geometry" />
        </mxCell>
        <mxCell id="1OjgaYy7xjw8Jyk47IAL-9" style="edgeStyle=orthogonalEdgeStyle;rounded=0;orthogonalLoop=1;jettySize=auto;html=1;exitX=0;exitY=0.5;exitDx=0;exitDy=0;entryX=1;entryY=0.5;entryDx=0;entryDy=0;" edge="1" parent="1" source="1OjgaYy7xjw8Jyk47IAL-3" target="1OjgaYy7xjw8Jyk47IAL-1">
          <mxGeometry relative="1" as="geometry" />
        </mxCell>
        <mxCell id="1OjgaYy7xjw8Jyk47IAL-13" style="edgeStyle=orthogonalEdgeStyle;rounded=0;orthogonalLoop=1;jettySize=auto;html=1;exitX=1;exitY=0.5;exitDx=0;exitDy=0;entryX=0;entryY=0.5;entryDx=0;entryDy=0;" edge="1" parent="1" source="1OjgaYy7xjw8Jyk47IAL-3" target="1OjgaYy7xjw8Jyk47IAL-11">
          <mxGeometry relative="1" as="geometry" />
        </mxCell>
        <mxCell id="1OjgaYy7xjw8Jyk47IAL-3" value="&lt;font style=&quot;font-size: 24px;&quot;&gt;Position Control&lt;br&gt;&lt;/font&gt;" style="rounded=1;whiteSpace=wrap;html=1;" vertex="1" parent="1">
          <mxGeometry x="320" y="300" width="140" height="60" as="geometry" />
        </mxCell>
        <mxCell id="1OjgaYy7xjw8Jyk47IAL-7" style="edgeStyle=orthogonalEdgeStyle;rounded=0;orthogonalLoop=1;jettySize=auto;html=1;exitX=0;exitY=0.5;exitDx=0;exitDy=0;entryX=1;entryY=0.5;entryDx=0;entryDy=0;" edge="1" parent="1" source="1OjgaYy7xjw8Jyk47IAL-4" target="1OjgaYy7xjw8Jyk47IAL-5">
          <mxGeometry relative="1" as="geometry" />
        </mxCell>
        <mxCell id="1OjgaYy7xjw8Jyk47IAL-14" style="edgeStyle=orthogonalEdgeStyle;rounded=0;orthogonalLoop=1;jettySize=auto;html=1;exitX=1;exitY=0.5;exitDx=0;exitDy=0;entryX=0;entryY=0.75;entryDx=0;entryDy=0;" edge="1" parent="1" source="1OjgaYy7xjw8Jyk47IAL-4" target="1OjgaYy7xjw8Jyk47IAL-11">
          <mxGeometry relative="1" as="geometry" />
        </mxCell>
        <mxCell id="1OjgaYy7xjw8Jyk47IAL-4" value="&lt;font style=&quot;font-size: 24px;&quot;&gt;Receiver&lt;/font&gt;" style="rounded=1;whiteSpace=wrap;html=1;" vertex="1" parent="1">
          <mxGeometry x="320" y="380" width="140" height="60" as="geometry" />
        </mxCell>
        <mxCell id="1OjgaYy7xjw8Jyk47IAL-6" style="edgeStyle=orthogonalEdgeStyle;rounded=0;orthogonalLoop=1;jettySize=auto;html=1;exitX=0;exitY=0.5;exitDx=0;exitDy=0;entryX=1;entryY=0.75;entryDx=0;entryDy=0;" edge="1" parent="1" source="1OjgaYy7xjw8Jyk47IAL-5" target="1OjgaYy7xjw8Jyk47IAL-1">
          <mxGeometry relative="1" as="geometry">
            <Array as="points">
              <mxPoint x="140" y="410" />
              <mxPoint x="140" y="345" />
            </Array>
          </mxGeometry>
        </mxCell>
        <mxCell id="1OjgaYy7xjw8Jyk47IAL-5" value="&lt;font style=&quot;font-size: 24px;&quot;&gt;DSP&lt;/font&gt;" style="rounded=1;whiteSpace=wrap;html=1;" vertex="1" parent="1">
          <mxGeometry x="170" y="380" width="120" height="60" as="geometry" />
        </mxCell>
        <mxCell id="1OjgaYy7xjw8Jyk47IAL-16" style="edgeStyle=orthogonalEdgeStyle;rounded=0;orthogonalLoop=1;jettySize=auto;html=1;exitX=1;exitY=0.25;exitDx=0;exitDy=0;entryX=0;entryY=0.25;entryDx=0;entryDy=0;" edge="1" parent="1" source="1OjgaYy7xjw8Jyk47IAL-11" target="1OjgaYy7xjw8Jyk47IAL-15">
          <mxGeometry relative="1" as="geometry" />
        </mxCell>
        <mxCell id="1OjgaYy7xjw8Jyk47IAL-11" value="&lt;font style=&quot;font-size: 24px;&quot;&gt;Antenna&lt;/font&gt;" style="rounded=1;whiteSpace=wrap;html=1;" vertex="1" parent="1">
          <mxGeometry x="530" y="300" width="120" height="60" as="geometry" />
        </mxCell>
        <mxCell id="1OjgaYy7xjw8Jyk47IAL-17" style="edgeStyle=orthogonalEdgeStyle;rounded=0;orthogonalLoop=1;jettySize=auto;html=1;exitX=0;exitY=0.75;exitDx=0;exitDy=0;entryX=1;entryY=0.75;entryDx=0;entryDy=0;" edge="1" parent="1" source="1OjgaYy7xjw8Jyk47IAL-15" target="1OjgaYy7xjw8Jyk47IAL-11">
          <mxGeometry relative="1" as="geometry" />
        </mxCell>
        <mxCell id="1OjgaYy7xjw8Jyk47IAL-15" value="&lt;font style=&quot;font-size: 24px;&quot;&gt;Drone&lt;/font&gt;" style="rounded=1;whiteSpace=wrap;html=1;" vertex="1" parent="1">
          <mxGeometry x="720" y="300" width="120" height="60" as="geometry" />
        </mxCell>
      </root>
    </mxGraphModel>
  </diagram>
</mxfile>
